<?xml version="1.0" encoding="UTF-8" standalone="no"?>
<!DOCTYPE svg PUBLIC "-//W3C//DTD SVG 1.1//EN"
 "http://www.w3.org/Graphics/SVG/1.1/DTD/svg11.dtd">
<!-- Generated by graphviz version 2.40.1 (20161225.0304)
 -->
<!-- Title: G Pages: 1 -->
<svg width="353pt" height="570pt"
 viewBox="0.00 0.00 353.00 570.00" xmlns="http://www.w3.org/2000/svg" xmlns:xlink="http://www.w3.org/1999/xlink">
<g id="graph0" class="graph" transform="scale(1 1) rotate(0) translate(4 566)">
<title>G</title>
<polygon fill="#ffffff" stroke="transparent" points="-4,4 -4,-566 349,-566 349,4 -4,4"/>
<g id="clust1" class="cluster">
<title>cluster_Global</title>
<path fill="none" stroke="#c0c0c0" d="M20,-8C20,-8 325,-8 325,-8 331,-8 337,-14 337,-20 337,-20 337,-542 337,-542 337,-548 331,-554 325,-554 325,-554 20,-554 20,-554 14,-554 8,-548 8,-542 8,-542 8,-20 8,-20 8,-14 14,-8 20,-8"/>
<text text-anchor="middle" x="172.5" y="-541.2" font-family="Times,serif" font-size="11.00" fill="#c0c0c0">Global</text>
</g>
<g id="clust2" class="cluster">
<title>cluster_\AFS</title>
<path fill="none" stroke="#c0c0c0" d="M28,-16C28,-16 317,-16 317,-16 323,-16 329,-22 329,-28 329,-28 329,-514 329,-514 329,-520 323,-526 317,-526 317,-526 28,-526 28,-526 22,-526 16,-520 16,-514 16,-514 16,-28 16,-28 16,-22 22,-16 28,-16"/>
<text text-anchor="middle" x="172.5" y="-513.2" font-family="Times,serif" font-size="11.00" fill="#c0c0c0">AFS</text>
</g>
<g id="clust3" class="cluster">
<title>cluster_\AFS\Repositories</title>
<path fill="none" stroke="#c0c0c0" d="M36,-372C36,-372 302,-372 302,-372 308,-372 314,-378 314,-384 314,-384 314,-486 314,-486 314,-492 308,-498 302,-498 302,-498 36,-498 36,-498 30,-498 24,-492 24,-486 24,-486 24,-384 24,-384 24,-378 30,-372 36,-372"/>
<text text-anchor="middle" x="169" y="-485.2" font-family="Times,serif" font-size="11.00" fill="#c0c0c0">Repositories</text>
</g>
<g id="clust4" class="cluster">
<title>cluster_\AFS\Forms</title>
<path fill="none" stroke="#c0c0c0" d="M36,-238C36,-238 309,-238 309,-238 315,-238 321,-244 321,-250 321,-250 321,-352 321,-352 321,-358 315,-364 309,-364 309,-364 36,-364 36,-364 30,-364 24,-358 24,-352 24,-352 24,-250 24,-250 24,-244 30,-238 36,-238"/>
<text text-anchor="middle" x="172.5" y="-351.2" font-family="Times,serif" font-size="11.00" fill="#c0c0c0">Forms</text>
</g>
<g id="clust5" class="cluster">
<title>cluster_\AFS\Databases</title>
<path fill="none" stroke="#c0c0c0" d="M42.5,-158C42.5,-158 295.5,-158 295.5,-158 301.5,-158 307.5,-164 307.5,-170 307.5,-170 307.5,-218 307.5,-218 307.5,-224 301.5,-230 295.5,-230 295.5,-230 42.5,-230 42.5,-230 36.5,-230 30.5,-224 30.5,-218 30.5,-218 30.5,-170 30.5,-170 30.5,-164 36.5,-158 42.5,-158"/>
<text text-anchor="middle" x="169" y="-217.2" font-family="Times,serif" font-size="11.00" fill="#c0c0c0">Databases</text>
</g>
<g id="clust6" class="cluster">
<title>cluster_\AFS\Entities</title>
<path fill="none" stroke="#c0c0c0" d="M227.5,-24C227.5,-24 273.5,-24 273.5,-24 279.5,-24 285.5,-30 285.5,-36 285.5,-36 285.5,-138 285.5,-138 285.5,-144 279.5,-150 273.5,-150 273.5,-150 227.5,-150 227.5,-150 221.5,-150 215.5,-144 215.5,-138 215.5,-138 215.5,-36 215.5,-36 215.5,-30 221.5,-24 227.5,-24"/>
<text text-anchor="middle" x="250.5" y="-137.2" font-family="Times,serif" font-size="11.00" fill="#c0c0c0">Entities</text>
</g>
<!-- \\AFS\\Repositories\\UserImageFile -->
<g id="node1" class="node">
<title>\\AFS\\Repositories\\UserImageFile</title>
<polygon fill="none" stroke="#000000" points="302.5,-470 198.5,-470 198.5,-434 302.5,-434 302.5,-470"/>
<text text-anchor="middle" x="250.5" y="-449.2" font-family="Courier,monospace" font-size="11.00" fill="#000000">UserImageFile</text>
</g>
<!-- \\AFS\\Repositories\\File -->
<g id="node4" class="node">
<title>\\AFS\\Repositories\\File</title>
<polygon fill="none" stroke="#000000" points="116,-470 32,-470 32,-434 116,-434 116,-470"/>
<text text-anchor="start" x="40" y="-455.2" font-family="Courier,monospace" font-size="11.00" fill="#000000">«abstract»</text>
<text text-anchor="start" x="60" y="-443.2" font-family="Courier,monospace" font-size="11.00" fill="#000000">File</text>
</g>
<!-- \\AFS\\Repositories\\UserImageFile&#45;&gt;\\AFS\\Repositories\\File -->
<g id="edge1" class="edge">
<title>\\AFS\\Repositories\\UserImageFile&#45;&gt;\\AFS\\Repositories\\File</title>
<path fill="none" stroke="#000000" d="M198.4988,-452C175.7482,-452 149.1074,-452 126.3206,-452"/>
<polygon fill="none" stroke="#000000" points="126.15,-448.5001 116.15,-452 126.1499,-455.5001 126.15,-448.5001"/>
</g>
<!-- \\AFS\\Repositories\\Repository -->
<g id="node2" class="node">
<title>\\AFS\\Repositories\\Repository</title>
<polygon fill="none" stroke="#000000" points="116,-416 32,-416 32,-380 116,-380 116,-416"/>
<text text-anchor="start" x="40" y="-401.2" font-family="Courier,monospace" font-size="11.00" fill="#000000">«abstract»</text>
<text text-anchor="start" x="40" y="-389.2" font-family="Courier,monospace" font-size="11.00" fill="#000000">Repository</text>
</g>
<!-- \\AFS\\Repositories\\UserRepository -->
<g id="node3" class="node">
<title>\\AFS\\Repositories\\UserRepository</title>
<polygon fill="none" stroke="#000000" points="306,-416 195,-416 195,-380 306,-380 306,-416"/>
<text text-anchor="middle" x="250.5" y="-395.2" font-family="Courier,monospace" font-size="11.00" fill="#000000">UserRepository</text>
</g>
<!-- \\AFS\\Repositories\\UserRepository&#45;&gt;\\AFS\\Repositories\\Repository -->
<g id="edge2" class="edge">
<title>\\AFS\\Repositories\\UserRepository&#45;&gt;\\AFS\\Repositories\\Repository</title>
<path fill="none" stroke="#000000" d="M194.6543,-398C172.7828,-398 147.8275,-398 126.3102,-398"/>
<polygon fill="none" stroke="#000000" points="126.0519,-394.5001 116.0519,-398 126.0519,-401.5001 126.0519,-394.5001"/>
</g>
<!-- \\AFS\\Forms\\Form -->
<g id="node5" class="node">
<title>\\AFS\\Forms\\Form</title>
<polygon fill="none" stroke="#000000" points="116,-309 32,-309 32,-273 116,-273 116,-309"/>
<text text-anchor="start" x="40" y="-294.2" font-family="Courier,monospace" font-size="11.00" fill="#000000">«abstract»</text>
<text text-anchor="start" x="60" y="-282.2" font-family="Courier,monospace" font-size="11.00" fill="#000000">Form</text>
</g>
<!-- \\AFS\\Forms\\UserRegisterForm -->
<g id="node6" class="node">
<title>\\AFS\\Forms\\UserRegisterForm</title>
<polygon fill="none" stroke="#000000" points="313,-336 188,-336 188,-300 313,-300 313,-336"/>
<text text-anchor="middle" x="250.5" y="-315.2" font-family="Courier,monospace" font-size="11.00" fill="#000000">UserRegisterForm</text>
</g>
<!-- \\AFS\\Forms\\UserRegisterForm&#45;&gt;\\AFS\\Forms\\Form -->
<g id="edge3" class="edge">
<title>\\AFS\\Forms\\UserRegisterForm&#45;&gt;\\AFS\\Forms\\Form</title>
<path fill="none" stroke="#000000" d="M187.7757,-308.4048C167.6183,-305.3212 145.5168,-301.9402 126.1986,-298.9851"/>
<polygon fill="none" stroke="#000000" points="126.4942,-295.4896 116.0799,-297.4372 125.4356,-302.4091 126.4942,-295.4896"/>
</g>
<!-- \\AFS\\Forms\\UserLoginForm -->
<g id="node7" class="node">
<title>\\AFS\\Forms\\UserLoginForm</title>
<polygon fill="none" stroke="#000000" points="302.5,-282 198.5,-282 198.5,-246 302.5,-246 302.5,-282"/>
<text text-anchor="middle" x="250.5" y="-261.2" font-family="Courier,monospace" font-size="11.00" fill="#000000">UserLoginForm</text>
</g>
<!-- \\AFS\\Forms\\UserLoginForm&#45;&gt;\\AFS\\Forms\\Form -->
<g id="edge5" class="edge">
<title>\\AFS\\Forms\\UserLoginForm&#45;&gt;\\AFS\\Forms\\Form</title>
<path fill="none" stroke="#000000" d="M198.4988,-271.9549C175.7482,-275.4351 149.1074,-279.5105 126.3206,-282.9963"/>
<polygon fill="none" stroke="#000000" points="125.5057,-279.5801 116.15,-284.5521 126.5643,-286.4996 125.5057,-279.5801"/>
</g>
<!-- \\AFS\\Databases\\JsonDatabase -->
<g id="node8" class="node">
<title>\\AFS\\Databases\\JsonDatabase</title>
<polygon fill="none" stroke="#000000" points="299.5,-202 201.5,-202 201.5,-166 299.5,-166 299.5,-202"/>
<text text-anchor="middle" x="250.5" y="-181.2" font-family="Courier,monospace" font-size="11.00" fill="#000000">JsonDatabase</text>
</g>
<!-- \\AFS\\Databases\\Database -->
<g id="node9" class="node">
<title>\\AFS\\Databases\\Database</title>
<polygon fill="none" stroke="#000000" points="109.5,-202 38.5,-202 38.5,-166 109.5,-166 109.5,-202"/>
<text text-anchor="middle" x="74" y="-181.2" font-family="Courier,monospace" font-size="11.00" fill="#000000">Database</text>
</g>
<!-- \\AFS\\Databases\\JsonDatabase&#45;&gt;\\AFS\\Databases\\Database -->
<g id="edge4" class="edge">
<title>\\AFS\\Databases\\JsonDatabase&#45;&gt;\\AFS\\Databases\\Database</title>
<path fill="none" stroke="#000000" stroke-dasharray="1,5" d="M201.3349,-184C175.8982,-184 145.0325,-184 120.0607,-184"/>
<polygon fill="none" stroke="#000000" points="119.7523,-180.5001 109.7523,-184 119.7522,-187.5001 119.7523,-180.5001"/>
</g>
<!-- \\AFS\\Entities\\User -->
<g id="node10" class="node">
<title>\\AFS\\Entities\\User</title>
<polygon fill="none" stroke="#000000" points="277.5,-122 223.5,-122 223.5,-86 277.5,-86 277.5,-122"/>
<text text-anchor="middle" x="250.5" y="-101.2" font-family="Courier,monospace" font-size="11.00" fill="#000000">User</text>
</g>
<!-- \\AFS\\Entities\\Auth -->
<g id="node11" class="node">
<title>\\AFS\\Entities\\Auth</title>
<polygon fill="none" stroke="#000000" points="277.5,-68 223.5,-68 223.5,-32 277.5,-32 277.5,-68"/>
<text text-anchor="middle" x="250.5" y="-47.2" font-family="Courier,monospace" font-size="11.00" fill="#000000">Auth</text>
</g>
</g>
</svg>
