<?xml version="1.0" encoding="UTF-8" standalone="no"?>
<!DOCTYPE svg PUBLIC "-//W3C//DTD SVG 1.1//EN"
 "http://www.w3.org/Graphics/SVG/1.1/DTD/svg11.dtd">
<!-- Generated by graphviz version 2.40.1 (20161225.0304)
 -->
<!-- Title: G Pages: 1 -->
<svg width="353pt" height="462pt"
 viewBox="0.00 0.00 353.00 462.00" xmlns="http://www.w3.org/2000/svg" xmlns:xlink="http://www.w3.org/1999/xlink">
<g id="graph0" class="graph" transform="scale(1 1) rotate(0) translate(4 458)">
<title>G</title>
<polygon fill="#ffffff" stroke="transparent" points="-4,4 -4,-458 349,-458 349,4 -4,4"/>
<g id="clust1" class="cluster">
<title>cluster_Global</title>
<path fill="none" stroke="#c0c0c0" d="M20,-8C20,-8 325,-8 325,-8 331,-8 337,-14 337,-20 337,-20 337,-434 337,-434 337,-440 331,-446 325,-446 325,-446 20,-446 20,-446 14,-446 8,-440 8,-434 8,-434 8,-20 8,-20 8,-14 14,-8 20,-8"/>
<text text-anchor="middle" x="172.5" y="-433.2" font-family="Times,serif" font-size="11.00" fill="#c0c0c0">Global</text>
</g>
<g id="clust2" class="cluster">
<title>cluster_\AFS</title>
<path fill="none" stroke="#c0c0c0" d="M28,-16C28,-16 317,-16 317,-16 323,-16 329,-22 329,-28 329,-28 329,-406 329,-406 329,-412 323,-418 317,-418 317,-418 28,-418 28,-418 22,-418 16,-412 16,-406 16,-406 16,-28 16,-28 16,-22 22,-16 28,-16"/>
<text text-anchor="middle" x="172.5" y="-405.2" font-family="Times,serif" font-size="11.00" fill="#c0c0c0">AFS</text>
</g>
<g id="clust3" class="cluster">
<title>cluster_\AFS\Repositories</title>
<path fill="none" stroke="#c0c0c0" d="M36,-264C36,-264 302,-264 302,-264 308,-264 314,-270 314,-276 314,-276 314,-378 314,-378 314,-384 308,-390 302,-390 302,-390 36,-390 36,-390 30,-390 24,-384 24,-378 24,-378 24,-276 24,-276 24,-270 30,-264 36,-264"/>
<text text-anchor="middle" x="169" y="-377.2" font-family="Times,serif" font-size="11.00" fill="#c0c0c0">Repositories</text>
</g>
<g id="clust4" class="cluster">
<title>cluster_\AFS\Forms</title>
<path fill="none" stroke="#c0c0c0" d="M36,-184C36,-184 309,-184 309,-184 315,-184 321,-190 321,-196 321,-196 321,-244 321,-244 321,-250 315,-256 309,-256 309,-256 36,-256 36,-256 30,-256 24,-250 24,-244 24,-244 24,-196 24,-196 24,-190 30,-184 36,-184"/>
<text text-anchor="middle" x="172.5" y="-243.2" font-family="Times,serif" font-size="11.00" fill="#c0c0c0">Forms</text>
</g>
<g id="clust5" class="cluster">
<title>cluster_\AFS\Databases</title>
<path fill="none" stroke="#c0c0c0" d="M42.5,-104C42.5,-104 295.5,-104 295.5,-104 301.5,-104 307.5,-110 307.5,-116 307.5,-116 307.5,-164 307.5,-164 307.5,-170 301.5,-176 295.5,-176 295.5,-176 42.5,-176 42.5,-176 36.5,-176 30.5,-170 30.5,-164 30.5,-164 30.5,-116 30.5,-116 30.5,-110 36.5,-104 42.5,-104"/>
<text text-anchor="middle" x="169" y="-163.2" font-family="Times,serif" font-size="11.00" fill="#c0c0c0">Databases</text>
</g>
<g id="clust6" class="cluster">
<title>cluster_\AFS\Entities</title>
<path fill="none" stroke="#c0c0c0" d="M227.5,-24C227.5,-24 273.5,-24 273.5,-24 279.5,-24 285.5,-30 285.5,-36 285.5,-36 285.5,-84 285.5,-84 285.5,-90 279.5,-96 273.5,-96 273.5,-96 227.5,-96 227.5,-96 221.5,-96 215.5,-90 215.5,-84 215.5,-84 215.5,-36 215.5,-36 215.5,-30 221.5,-24 227.5,-24"/>
<text text-anchor="middle" x="250.5" y="-83.2" font-family="Times,serif" font-size="11.00" fill="#c0c0c0">Entities</text>
</g>
<!-- \\AFS\\Repositories\\UserImageFile -->
<g id="node1" class="node">
<title>\\AFS\\Repositories\\UserImageFile</title>
<polygon fill="none" stroke="#000000" points="302.5,-362 198.5,-362 198.5,-326 302.5,-326 302.5,-362"/>
<text text-anchor="middle" x="250.5" y="-341.2" font-family="Courier,monospace" font-size="11.00" fill="#000000">UserImageFile</text>
</g>
<!-- \\AFS\\Repositories\\File -->
<g id="node4" class="node">
<title>\\AFS\\Repositories\\File</title>
<polygon fill="none" stroke="#000000" points="116,-362 32,-362 32,-326 116,-326 116,-362"/>
<text text-anchor="start" x="40" y="-347.2" font-family="Courier,monospace" font-size="11.00" fill="#000000">«abstract»</text>
<text text-anchor="start" x="60" y="-335.2" font-family="Courier,monospace" font-size="11.00" fill="#000000">File</text>
</g>
<!-- \\AFS\\Repositories\\UserImageFile&#45;&gt;\\AFS\\Repositories\\File -->
<g id="edge1" class="edge">
<title>\\AFS\\Repositories\\UserImageFile&#45;&gt;\\AFS\\Repositories\\File</title>
<path fill="none" stroke="#000000" d="M198.4988,-344C175.7482,-344 149.1074,-344 126.3206,-344"/>
<polygon fill="none" stroke="#000000" points="126.15,-340.5001 116.15,-344 126.1499,-347.5001 126.15,-340.5001"/>
</g>
<!-- \\AFS\\Repositories\\Repository -->
<g id="node2" class="node">
<title>\\AFS\\Repositories\\Repository</title>
<polygon fill="none" stroke="#000000" points="116,-308 32,-308 32,-272 116,-272 116,-308"/>
<text text-anchor="start" x="40" y="-293.2" font-family="Courier,monospace" font-size="11.00" fill="#000000">«abstract»</text>
<text text-anchor="start" x="40" y="-281.2" font-family="Courier,monospace" font-size="11.00" fill="#000000">Repository</text>
</g>
<!-- \\AFS\\Repositories\\UserRepository -->
<g id="node3" class="node">
<title>\\AFS\\Repositories\\UserRepository</title>
<polygon fill="none" stroke="#000000" points="306,-308 195,-308 195,-272 306,-272 306,-308"/>
<text text-anchor="middle" x="250.5" y="-287.2" font-family="Courier,monospace" font-size="11.00" fill="#000000">UserRepository</text>
</g>
<!-- \\AFS\\Repositories\\UserRepository&#45;&gt;\\AFS\\Repositories\\Repository -->
<g id="edge2" class="edge">
<title>\\AFS\\Repositories\\UserRepository&#45;&gt;\\AFS\\Repositories\\Repository</title>
<path fill="none" stroke="#000000" d="M194.6543,-290C172.7828,-290 147.8275,-290 126.3102,-290"/>
<polygon fill="none" stroke="#000000" points="126.0519,-286.5001 116.0519,-290 126.0519,-293.5001 126.0519,-286.5001"/>
</g>
<!-- \\AFS\\Forms\\Form -->
<g id="node5" class="node">
<title>\\AFS\\Forms\\Form</title>
<polygon fill="none" stroke="#000000" points="116,-228 32,-228 32,-192 116,-192 116,-228"/>
<text text-anchor="start" x="40" y="-213.2" font-family="Courier,monospace" font-size="11.00" fill="#000000">«abstract»</text>
<text text-anchor="start" x="60" y="-201.2" font-family="Courier,monospace" font-size="11.00" fill="#000000">Form</text>
</g>
<!-- \\AFS\\Forms\\UserRegisterForm -->
<g id="node6" class="node">
<title>\\AFS\\Forms\\UserRegisterForm</title>
<polygon fill="none" stroke="#000000" points="313,-228 188,-228 188,-192 313,-192 313,-228"/>
<text text-anchor="middle" x="250.5" y="-207.2" font-family="Courier,monospace" font-size="11.00" fill="#000000">UserRegisterForm</text>
</g>
<!-- \\AFS\\Forms\\UserRegisterForm&#45;&gt;\\AFS\\Forms\\Form -->
<g id="edge3" class="edge">
<title>\\AFS\\Forms\\UserRegisterForm&#45;&gt;\\AFS\\Forms\\Form</title>
<path fill="none" stroke="#000000" d="M187.7757,-210C167.6183,-210 145.5168,-210 126.1986,-210"/>
<polygon fill="none" stroke="#000000" points="126.08,-206.5001 116.0799,-210 126.0799,-213.5001 126.08,-206.5001"/>
</g>
<!-- \\AFS\\Databases\\JsonDatabase -->
<g id="node7" class="node">
<title>\\AFS\\Databases\\JsonDatabase</title>
<polygon fill="none" stroke="#000000" points="299.5,-148 201.5,-148 201.5,-112 299.5,-112 299.5,-148"/>
<text text-anchor="middle" x="250.5" y="-127.2" font-family="Courier,monospace" font-size="11.00" fill="#000000">JsonDatabase</text>
</g>
<!-- \\AFS\\Databases\\Database -->
<g id="node8" class="node">
<title>\\AFS\\Databases\\Database</title>
<polygon fill="none" stroke="#000000" points="109.5,-148 38.5,-148 38.5,-112 109.5,-112 109.5,-148"/>
<text text-anchor="middle" x="74" y="-127.2" font-family="Courier,monospace" font-size="11.00" fill="#000000">Database</text>
</g>
<!-- \\AFS\\Databases\\JsonDatabase&#45;&gt;\\AFS\\Databases\\Database -->
<g id="edge4" class="edge">
<title>\\AFS\\Databases\\JsonDatabase&#45;&gt;\\AFS\\Databases\\Database</title>
<path fill="none" stroke="#000000" stroke-dasharray="1,5" d="M201.3349,-130C175.8982,-130 145.0325,-130 120.0607,-130"/>
<polygon fill="none" stroke="#000000" points="119.7523,-126.5001 109.7523,-130 119.7522,-133.5001 119.7523,-126.5001"/>
</g>
<!-- \\AFS\\Entities\\User -->
<g id="node9" class="node">
<title>\\AFS\\Entities\\User</title>
<polygon fill="none" stroke="#000000" points="277.5,-68 223.5,-68 223.5,-32 277.5,-32 277.5,-68"/>
<text text-anchor="middle" x="250.5" y="-47.2" font-family="Courier,monospace" font-size="11.00" fill="#000000">User</text>
</g>
</g>
</svg>
