<?xml version="1.0" encoding="UTF-8" standalone="no"?>
<!DOCTYPE svg PUBLIC "-//W3C//DTD SVG 1.1//EN"
 "http://www.w3.org/Graphics/SVG/1.1/DTD/svg11.dtd">
<!-- Generated by graphviz version 2.40.1 (20161225.0304)
 -->
<!-- Title: G Pages: 1 -->
<svg width="353pt" height="248pt"
 viewBox="0.00 0.00 353.00 248.00" xmlns="http://www.w3.org/2000/svg" xmlns:xlink="http://www.w3.org/1999/xlink">
<g id="graph0" class="graph" transform="scale(1 1) rotate(0) translate(4 244)">
<title>G</title>
<polygon fill="#ffffff" stroke="transparent" points="-4,4 -4,-244 349,-244 349,4 -4,4"/>
<g id="clust1" class="cluster">
<title>cluster_Global</title>
<path fill="none" stroke="#c0c0c0" d="M20,-8C20,-8 325,-8 325,-8 331,-8 337,-14 337,-20 337,-20 337,-220 337,-220 337,-226 331,-232 325,-232 325,-232 20,-232 20,-232 14,-232 8,-226 8,-220 8,-220 8,-20 8,-20 8,-14 14,-8 20,-8"/>
<text text-anchor="middle" x="172.5" y="-219.2" font-family="Times,serif" font-size="11.00" fill="#c0c0c0">Global</text>
</g>
<g id="clust2" class="cluster">
<title>cluster_\AFS</title>
<path fill="none" stroke="#c0c0c0" d="M28,-16C28,-16 317,-16 317,-16 323,-16 329,-22 329,-28 329,-28 329,-192 329,-192 329,-198 323,-204 317,-204 317,-204 28,-204 28,-204 22,-204 16,-198 16,-192 16,-192 16,-28 16,-28 16,-22 22,-16 28,-16"/>
<text text-anchor="middle" x="172.5" y="-191.2" font-family="Times,serif" font-size="11.00" fill="#c0c0c0">AFS</text>
</g>
<g id="clust3" class="cluster">
<title>cluster_\AFS\Repositories</title>
<path fill="none" stroke="#c0c0c0" d="M36,-104C36,-104 302,-104 302,-104 308,-104 314,-110 314,-116 314,-116 314,-164 314,-164 314,-170 308,-176 302,-176 302,-176 36,-176 36,-176 30,-176 24,-170 24,-164 24,-164 24,-116 24,-116 24,-110 30,-104 36,-104"/>
<text text-anchor="middle" x="169" y="-163.2" font-family="Times,serif" font-size="11.00" fill="#c0c0c0">Repositories</text>
</g>
<g id="clust4" class="cluster">
<title>cluster_\AFS\Forms</title>
<path fill="none" stroke="#c0c0c0" d="M36,-24C36,-24 309,-24 309,-24 315,-24 321,-30 321,-36 321,-36 321,-84 321,-84 321,-90 315,-96 309,-96 309,-96 36,-96 36,-96 30,-96 24,-90 24,-84 24,-84 24,-36 24,-36 24,-30 30,-24 36,-24"/>
<text text-anchor="middle" x="172.5" y="-83.2" font-family="Times,serif" font-size="11.00" fill="#c0c0c0">Forms</text>
</g>
<!-- \\AFS\\Repositories\\Repository -->
<g id="node1" class="node">
<title>\\AFS\\Repositories\\Repository</title>
<polygon fill="none" stroke="#000000" points="116,-148 32,-148 32,-112 116,-112 116,-148"/>
<text text-anchor="start" x="40" y="-133.2" font-family="Courier,monospace" font-size="11.00" fill="#000000">«abstract»</text>
<text text-anchor="start" x="40" y="-121.2" font-family="Courier,monospace" font-size="11.00" fill="#000000">Repository</text>
</g>
<!-- \\AFS\\Repositories\\UserRepository -->
<g id="node2" class="node">
<title>\\AFS\\Repositories\\UserRepository</title>
<polygon fill="none" stroke="#000000" points="306,-148 195,-148 195,-112 306,-112 306,-148"/>
<text text-anchor="middle" x="250.5" y="-127.2" font-family="Courier,monospace" font-size="11.00" fill="#000000">UserRepository</text>
</g>
<!-- \\AFS\\Repositories\\UserRepository&#45;&gt;\\AFS\\Repositories\\Repository -->
<g id="edge1" class="edge">
<title>\\AFS\\Repositories\\UserRepository&#45;&gt;\\AFS\\Repositories\\Repository</title>
<path fill="none" stroke="#000000" d="M194.6543,-130C172.7828,-130 147.8275,-130 126.3102,-130"/>
<polygon fill="none" stroke="#000000" points="126.0519,-126.5001 116.0519,-130 126.0519,-133.5001 126.0519,-126.5001"/>
</g>
<!-- \\AFS\\Forms\\Form -->
<g id="node3" class="node">
<title>\\AFS\\Forms\\Form</title>
<polygon fill="none" stroke="#000000" points="116,-68 32,-68 32,-32 116,-32 116,-68"/>
<text text-anchor="start" x="40" y="-53.2" font-family="Courier,monospace" font-size="11.00" fill="#000000">«abstract»</text>
<text text-anchor="start" x="60" y="-41.2" font-family="Courier,monospace" font-size="11.00" fill="#000000">Form</text>
</g>
<!-- \\AFS\\Forms\\UserRegisterForm -->
<g id="node4" class="node">
<title>\\AFS\\Forms\\UserRegisterForm</title>
<polygon fill="none" stroke="#000000" points="313,-68 188,-68 188,-32 313,-32 313,-68"/>
<text text-anchor="middle" x="250.5" y="-47.2" font-family="Courier,monospace" font-size="11.00" fill="#000000">UserRegisterForm</text>
</g>
<!-- \\AFS\\Forms\\UserRegisterForm&#45;&gt;\\AFS\\Forms\\Form -->
<g id="edge2" class="edge">
<title>\\AFS\\Forms\\UserRegisterForm&#45;&gt;\\AFS\\Forms\\Form</title>
<path fill="none" stroke="#000000" d="M187.7757,-50C167.6183,-50 145.5168,-50 126.1986,-50"/>
<polygon fill="none" stroke="#000000" points="126.08,-46.5001 116.0799,-50 126.0799,-53.5001 126.08,-46.5001"/>
</g>
</g>
</svg>
